<?xml version="1.0" encoding="iso-8859-1"?>
<!-- Generator: Adobe Illustrator 19.0.0, SVG Export Plug-In . SVG Version: 6.00 Build 0)  -->
<svg version="1.1" id="Layer_1" xmlns="http://www.w3.org/2000/svg" xmlns:xlink="http://www.w3.org/1999/xlink" x="0px" y="0px"
	 viewBox="0 0 512 512" style="enable-background:new 0 0 512 512;" xml:space="preserve">
<g>
	<g>
		<path d="M398.762,94.432c4.953-9.075,7.772-19.474,7.772-30.521C406.535,28.67,377.864,0,342.624,0
			c-26.065,0-52.735,13.468-73.168,36.951c-5.057,5.811-9.561,12.056-13.456,18.56c-3.895-6.504-8.399-12.749-13.456-18.56
			C222.111,13.468,195.442,0,169.376,0c-35.24,0-63.911,28.671-63.911,63.911c0,11.046,2.818,21.446,7.772,30.521H26.2v185.911
			h29.987V512h399.627V280.343H485.8V94.432H398.762z M169.376,33.391c30.299,0,59.106,30.993,67.489,61.04h-67.489
			c-16.828,0-30.52-13.69-30.52-30.521C138.857,47.082,152.548,33.391,169.376,33.391z M239.304,478.609H89.578V280.343h149.727
			V478.609z M239.304,246.951H59.591V127.823h179.713V246.951z M342.624,33.391c16.828,0,30.52,13.692,30.52,30.52
			c0,16.829-13.692,30.521-30.52,30.521h-67.489C283.518,64.384,312.324,33.391,342.624,33.391z M422.422,478.609L422.422,478.609
			H272.696V280.343h149.727V478.609z M452.409,246.952H272.696V127.823h179.713V246.952z"/>
	</g>
</g>
<g>
</g>
<g>
</g>
<g>
</g>
<g>
</g>
<g>
</g>
<g>
</g>
<g>
</g>
<g>
</g>
<g>
</g>
<g>
</g>
<g>
</g>
<g>
</g>
<g>
</g>
<g>
</g>
<g>
</g>
</svg>
